<svg xmlns="http://www.w3.org/2000/svg" viewBox="0 0 32 32" role="img" aria-label="My Sugya">
  <rect width="32" height="32" rx="7" fill="#0f1623"/>
  <path d="M8 7.5c3.2.15 5.85 1.05 8 2.7v14.3c-2.15-1.45-4.8-2.25-8-2.4V7.5Z" fill="#f8fafc" opacity=".95"/>
  <path d="M24 7.5c-3.2.15-5.85 1.05-8 2.7v14.3c2.15-1.45 4.8-2.25 8-2.4V7.5Z" fill="#e0f2fe" opacity=".95"/>
  <path d="M16 10.2v14.3" stroke="#0f1623" stroke-width="1.2" stroke-linecap="round" opacity=".55"/>
  <path d="M10.1 13.2h3.6M10.1 16.2h3.2M18.3 13.2h3.6M18.7 16.2h3.2" stroke="#0f1623" stroke-width="1.1" stroke-linecap="round" opacity=".58"/>
  <circle cx="11" cy="20" r="1.3" fill="#f59e0b"/>
  <circle cx="16" cy="17.8" r="1.3" fill="#06b6d4"/>
  <circle cx="21" cy="20" r="1.3" fill="#f59e0b"/>
  <path d="M12.2 19.5 14.8 18.3M17.2 18.3l2.6 1.2" stroke="#06b6d4" stroke-width="1" stroke-linecap="round" opacity=".9"/>
</svg>
